<?xml version="1.0" encoding="UTF-8" standalone="no"?>
<svg
   xmlns:dc="http://purl.org/dc/elements/1.1/"
   xmlns:cc="http://creativecommons.org/ns#"
   xmlns:rdf="http://www.w3.org/1999/02/22-rdf-syntax-ns#"
   xmlns:svg="http://www.w3.org/2000/svg"
   xmlns="http://www.w3.org/2000/svg"
   id="svg184"
   viewBox="0 0 196242 206882"
   clip-rule="evenodd"
   fill-rule="evenodd"
   image-rendering="optimizeQuality"
   text-rendering="geometricPrecision"
   shape-rendering="geometricPrecision"
   version="1.1"
   height="1764px"
   width="1674px"
   xml:space="preserve"><metadata
   id="metadata190"><rdf:RDF><cc:Work
       rdf:about=""><dc:format>image/svg+xml</dc:format><dc:type
         rdf:resource="http://purl.org/dc/dcmitype/StillImage" /><dc:title></dc:title></cc:Work></rdf:RDF></metadata><defs
   id="defs188" />
 <g
   id="Ebene_x0020_1">
  <metadata
   id="CorelCorpID_0Corel-Layer" />
  <path
   id="path3"
   d="M83908 206882c46341,0 83908,-37567 83908,-83908 0,-33821 -20010,-62968 -48836,-76249 265,2107 210,2971 -50,3070 -305,115 -893,-825 -1578,-2052 -8367,-14989 -54885,-14036 -64635,-262 -992,1402 -1860,2551 -2462,2650 -539,88 -1386,-1848 -1181,-3514 -28954,13230 -49073,42444 -49073,76358 0,46341 37567,83908 83908,83908z"
   fill="#FEFEFE" />
  <path
   style="fill:#da4a18;fill-opacity:1"
   id="path5"
   d="M135378 39834l0 -32259c0,0 10150,-9971 21910,-5349 11761,4623 3773,7813 22445,11110 0,0 -1664,21434 928,30832 0,0 -15542,3394 -30332,-6158 -6217,-4015 -14952,1824 -14952,1824z"
   fill-rule="nonzero"
   fill="#E94E0F" />
  <path
   style="fill:#da4a18;fill-opacity:0"
   id="path7"
   d="M135378 39834l0 -32259c0,0 10150,-9971 21910,-5349 11761,4623 3773,7813 22445,11110 0,0 -1664,21434 928,30832 0,0 -15542,3394 -30332,-6158 -6217,-4015 -14952,1824 -14952,1824z"
   fill-rule="nonzero"
   fill="#E94E0F" />
  <path
   id="path9"
   d="M163442 23646l0 4246c0,1114 458,1841 1374,2177 254,93 530,145 828,153l0 1860c-365,16 -806,-71 -1325,-261 -950,-349 -1678,-916 -2186,-1705 -508,-787 -762,-1745 -762,-2872l0 -4359 -1606 -590 0 -1766 1606 590 0 -2311 2070 -29 0 3100 2219 815 0 1767 -2219 -815zm-6160 -2262l0 4246c0,1115 459,1840 1374,2177 254,93 530,145 828,154l0 1860c-364,17 -806,-71 -1325,-261 -949,-349 -1678,-917 -2186,-1705 -508,-788 -762,-1745 -762,-2872l0 -4359 -1606 -590 0 -1766 1606 590 0 -2311 2070 -29 0 3100 2219 815 0 1766 -2219 -815zm2768 -9352c5775,2120 10456,9150 10456,15702 0,6551 -4681,10143 -10456,8023 -5774,-2121 -10456,-9151 -10456,-15702 0,-6552 4682,-10144 10456,-8023z"
   fill="white" />
  <path
   id="path11"
   d="M55894 150166c-794,-592 -10949,-73953 -1779,-100225 0,0 24805,13613 54968,5273 0,0 -7580,84354 2499,98922 0,0 -28269,16469 -55688,-3970z"
   fill="white" />
  <path
   id="path13"
   d="M52315 125678c0,0 34559,20582 55686,8843l3581 19615c0,0 -27363,15381 -55688,-3970l-3579 -24488z"
   fill="#da4a18" />
  <path
   id="path15"
   d="M56226 128404c-894,3737 -594,8005 -265,11799 165,1909 419,3807 750,5694 340,1937 622,3962 1531,5725 306,592 1282,317 1257,-340 -72,-1828 -642,-3594 -1001,-5380 -411,-2043 -744,-4108 -1000,-6175 -236,-1909 -425,-3828 -541,-5748 -112,-1852 -77,-3735 -329,-5574 -29,-209 -357,-188 -402,0z"
   fill-rule="nonzero"
   fill="white" />
  <path
   id="path17"
   d="M59140 129998c-553,1691 -506,3666 -511,5427 -7,2019 101,4040 257,6053 297,3820 713,7810 1749,11507 324,1156 1912,641 1750,-483 -555,-3846 -1330,-7630 -1707,-11508 -180,-1853 -293,-3711 -395,-5569 -97,-1778 -25,-3699 -484,-5427 -90,-338 -558,-312 -660,0z"
   fill-rule="nonzero"
   fill="white" />
  <path
   id="path19"
   d="M97022 138505c-216,1470 103,2967 312,4425 248,1741 487,3483 727,5226 239,1737 470,3475 658,5219 184,1714 139,3559 553,5231 261,1054 1672,715 1773,-240 178,-1693 -216,-3557 -424,-5239 -205,-1660 -438,-3316 -692,-4969 -253,-1649 -547,-3293 -835,-4937 -282,-1607 -428,-3360 -1164,-4834 -179,-358 -844,-305 -906,118z"
   fill-rule="nonzero"
   fill="white" />
  <path
   id="path21"
   d="M102126 137343c31,1581 518,3175 828,4720 337,1680 619,3369 871,5064 251,1691 446,3391 593,5094 137,1597 -77,3590 492,5091 274,721 1333,820 1568,0 445,-1553 0,-3503 -168,-5091 -181,-1701 -409,-3398 -684,-5087 -288,-1766 -647,-3520 -1058,-5262 -375,-1595 -715,-3338 -1526,-4777 -237,-421 -924,-238 -915,248z"
   fill-rule="nonzero"
   fill="white" />
  <path
   id="path23"
   d="M142734 119802c0,3342 -3205,6051 -7159,6051 -3954,0 -7159,-2709 -7159,-6051 0,-3342 3205,-6051 7159,-6051 3954,0 7159,2709 7159,6051z"
   fill-rule="nonzero"
   fill="#BCBFE1" />
  <path
   id="path25"
   d="M139120 112781c0,1671 -1602,3025 -3579,3025 -1976,0 -3579,-1355 -3579,-3025 0,-1671 1603,-3025 3579,-3025 1977,0 3579,1355 3579,3025z"
   fill-rule="nonzero"
   fill="#BCBFE1" />
  <path
   id="path27"
   d="M48476 135457c1297,3080 -149,6628 -3229,7925 -3080,1296 -6629,-150 -7925,-3229 -1297,-3080 149,-6628 3229,-7925 3080,-1296 6628,150 7925,3229z"
   fill-rule="nonzero"
   fill="#BCBFE1" />
  <path
   id="path29"
   d="M50663 135808c0,1671 -1602,3026 -3580,3026 -1976,0 -3579,-1355 -3579,-3026 0,-1671 1603,-3026 3579,-3026 1977,0 3580,1355 3580,3026z"
   fill-rule="nonzero"
   fill="#BCBFE1" />
  <path
   id="path31"
   d="M45090 107088c0,0 -18662,-78240 40830,-79742 59491,-1502 28686,81748 28686,81748 0,0 4433,1210 -741,5513 -7056,5868 -59685,2897 -67596,-2201 -3416,-2201 -1179,-5318 -1179,-5318z"
   fill-rule="nonzero"
   fill="white" />
  <path
   id="path33"
   d="M46793 107156c0,0 -17033,-77743 37266,-79235 54298,-1493 26182,81229 26182,81229 0,0 4046,1202 -676,5478 -6440,5831 -54476,2878 -61696,-2187 -3118,-2187 -1076,-5285 -1076,-5285z"
   fill-rule="nonzero"
   fill="#BCBFE1" />
  <path
   id="path35"
   d="M49894 49948c5430,-12138 15647,-21518 34166,-22027 15331,-422 24090,5873 28768,15121 -14462,-9873 -51529,-7685 -60112,4440 -992,1402 -1860,2551 -2462,2650 -111,18 -235,-50 -360,-183z"
   fill-rule="nonzero"
   fill="#D99783" />
  <path
   id="path37"
   d="M50663 111735c0,0 -1910,-56915 3452,-61794 0,0 19003,12344 54968,5273 0,0 -4248,49713 -2180,59393 0,0 -40942,5061 -56240,-2872z"
   fill-rule="nonzero"
   fill="#8587AC" />
  <path
   id="path39"
   d="M44134 85162c0,0 -14915,4134 -11102,10594 3974,6733 13916,4297 13916,4297 0,0 274,-12378 -2815,-14891z"
   fill-rule="nonzero"
   fill="white" />
  <path
   id="path41"
   d="M114942 83371c0,0 -4928,10321 -2943,15348 0,0 14127,379 19225,-7674 3208,-5068 -16282,-7674 -16282,-7674z"
   fill-rule="nonzero"
   fill="white" />
  <path
   id="path43"
   d="M196242 143449c0,5105 -6061,9244 -13538,9244 -7477,0 -13537,-4139 -13537,-9244 0,-5105 6061,-9244 13537,-9244 7477,0 13538,4139 13538,9244z"
   fill-rule="nonzero"
   fill="#BCBFE1" />
  <path
   id="path45"
   d="M56076 150116c-1053,-6547 -2287,-13038 -3070,-19629 -777,-6527 -1372,-13074 -1727,-19638 -707,-13056 -436,-26162 768,-39180 673,-7273 1967,-14467 2693,-21728 71,-707 -1058,-838 -1227,-166 -1595,6333 -2238,12982 -2872,19469 -647,6627 -1037,13276 -1166,19933 -254,13027 377,26131 2177,39040 1025,7350 2168,14816 4061,21999 63,239 401,134 364,-100z"
   fill-rule="nonzero"
   fill="black" />
  <path
   id="path47"
   d="M111735 154094c-4197,-24825 -5502,-50295 -3467,-75393 574,-7079 1477,-14124 2267,-21181 70,-619 -968,-759 -1091,-148 -2481,12370 -3302,25141 -3545,37736 -246,12750 352,25526 1910,38185 865,7031 2156,13958 3620,20886 43,202 340,114 306,-84z"
   fill-rule="nonzero"
   fill="black" />
  <path
   id="path49"
   d="M54394 49196c11683,7953 27219,10477 41069,8857 4024,-471 7955,-1324 11803,-2588 843,-277 495,-1592 -369,-1338 -8591,2518 -17580,3443 -26493,2515 -9098,-948 -17573,-3911 -25796,-7813 -247,-118 -443,213 -215,368z"
   fill-rule="nonzero"
   fill="black" />
  <path
   id="path51"
   d="M56667 150247c3037,3066 6311,5429 10312,7114 3753,1582 7709,2580 11748,3074 9451,1155 19299,-375 28286,-3364 927,-308 555,-1714 -406,-1473 -8868,2227 -17853,4105 -27047,3209 -8000,-779 -16322,-3719 -22592,-8862 -208,-171 -499,103 -301,302z"
   fill-rule="nonzero"
   fill="black" />
  <path
   id="path53"
   d="M61877 154687c-162,2982 -752,5957 -868,8929 -19,489 745,597 857,116 667,-2884 577,-6099 567,-9045 -1,-360 -536,-355 -555,0z"
   fill-rule="nonzero"
   fill="black" />
  <path
   id="path55"
   d="M61765 163503c-964,-877 -2765,-754 -3998,-819 -1806,-95 -3616,-120 -5424,-54 -3455,128 -6877,552 -10090,1886 -944,391 -617,1846 435,1577 3240,-826 6549,-1352 9890,-1504 1570,-71 3145,-86 4716,-83 1295,3 3312,340 4404,-491 157,-119 238,-357 66,-514z"
   fill-rule="nonzero"
   fill="black" />
  <path
   id="path57"
   d="M102632 158475c199,1005 345,2038 401,3062 45,829 -99,1689 151,2487 115,368 565,316 698,0 700,-1665 -187,-4148 -851,-5717 -102,-240 -444,-59 -399,168z"
   fill-rule="nonzero"
   fill="black" />
  <path
   id="path59"
   d="M58318 66402c-733,1796 -630,3889 -8,5705 322,941 1076,2862 2352,1801 1938,-1613 1221,-8208 -1915,-8048 -1899,96 -1611,2698 -1486,3966 113,1146 258,4385 1885,4492 1682,111 2008,-2535 2110,-3694 140,-1570 7,-4105 -1160,-5326 -1264,-1323 -2504,206 -2668,1498 -309,2429 303,4946 1354,7122 256,530 1134,524 1392,0 1167,-2369 1085,-5029 -273,-7302 -329,-551 -1306,-500 -1445,189 -311,1551 -238,3082 371,4554 379,914 1879,547 1520,-419 -456,-1230 -621,-2419 -367,-3714 -482,63 -963,126 -1445,189 1062,1762 1169,3845 245,5690l1392 0c-574,-1207 -973,-2497 -1138,-3825 -75,-609 -105,-1222 -83,-1836 6,-173 -50,-731 79,-855 147,-143 226,308 319,564 474,1310 603,2776 358,4149 -51,286 -116,576 -201,854 -134,439 -48,591 -277,274 -331,-460 -410,-1551 -495,-2082 -116,-717 -196,-1455 -184,-2184 9,-509 -128,-720 425,-734 471,-12 613,250 830,633 656,1160 851,2699 507,3985 -39,147 -253,943 -394,942 -75,0 -343,-650 -380,-731 -267,-580 -465,-1198 -595,-1823 -275,-1322 -159,-2625 7,-3949 49,-392 -510,-389 -633,-85z"
   fill-rule="nonzero"
   fill="black" />
  <path
   id="path61"
   d="M65004 65539c-336,2049 -111,4460 751,6371 699,1549 1955,981 2580,-277 755,-1519 798,-3359 197,-4936 -392,-1031 -1547,-3056 -2927,-2227 -1320,793 -1269,3621 -1138,4920 128,1266 583,4009 2044,4466 1832,572 2374,-2252 2538,-3457 240,-1756 126,-4284 -979,-5768 -1179,-1581 -2833,-29 -3121,1369 -453,2194 256,4618 1406,6478 360,582 1090,506 1464,0 1449,-1961 1126,-4784 -676,-6406 -496,-446 -1197,-238 -1417,374 -514,1427 -408,3154 854,4128 501,387 1109,-249 990,-761 -252,-1092 -618,-1784 -210,-2916 -472,125 -945,249 -1417,375 1289,1160 1434,2968 412,4350l1464 0c-663,-1072 -1104,-2228 -1244,-3485 -60,-536 -187,-1470 43,-1993 178,-405 109,-399 354,-82 176,229 259,762 331,1052 340,1352 334,2815 -42,4160 -42,149 -216,935 -346,968 24,-6 -303,-709 -311,-728 -260,-612 -446,-1257 -549,-1915 -78,-498 -188,-3726 325,-3707 315,12 858,1292 935,1501 181,492 276,1014 294,1537 20,580 -70,1170 -263,1717 -111,314 -136,653 -435,529 -305,-128 -354,-718 -440,-1016 -428,-1479 -554,-2983 -659,-4513 -29,-431 -729,-596 -808,-109z"
   fill-rule="nonzero"
   fill="black" />
  <path
   id="path63"
   d="M51037 103563c1718,496 3610,573 5385,727 1928,167 3861,291 5792,417 3861,250 7727,403 11594,521 7738,235 15469,297 23201,-107 1007,-52 1023,-1574 0,-1577 -7649,-13 -15301,59 -22949,-91 -3782,-75 -7561,-216 -11342,-351 -1847,-66 -3694,-149 -5541,-232 -1979,-90 -4070,-313 -6039,-56 -402,53 -548,621 -101,750z"
   fill-rule="nonzero"
   fill="black" />
  <path
   id="path65"
   d="M53794 67465c4024,-552 7974,-1483 12022,-1921 3947,-427 7906,-456 11869,-603 1009,-37 980,-1456 0,-1547 -4103,-380 -8263,-58 -12338,487 -3987,533 -8149,1255 -11870,2831 -470,199 -96,809 317,752z"
   fill-rule="nonzero"
   fill="black" />
  <path
   id="path67"
   d="M103853 163976c1164,371 2467,318 3678,405 1362,97 2720,218 4074,395 2783,366 5558,926 8280,1606 873,219 1211,-1052 369,-1338 -2669,-906 -5371,-1500 -8172,-1813 -1349,-151 -2713,-238 -4071,-246 -1340,-8 -2899,-53 -4158,455 -247,99 -279,446 0,535z"
   fill-rule="nonzero"
   fill="black" />
  <path
   id="path69"
   d="M52021 125831c1048,1315 2787,2353 4420,2707 722,156 1232,-861 524,-1242 -1453,-780 -3014,-1531 -4539,-2161 -432,-179 -628,417 -405,696z"
   fill-rule="nonzero"
   fill="black" />
  <path
   id="path71"
   d="M59032 129960c460,717 1326,1056 2084,1380 862,368 1692,721 2639,533 483,-96 659,-796 296,-1119 -634,-561 -1411,-730 -2202,-972 -753,-231 -1596,-653 -2393,-560 -344,40 -645,394 -424,739z"
   fill-rule="nonzero"
   fill="black" />
  <path
   id="path73"
   d="M66691 133297c1371,874 3318,1579 4939,1686 807,54 1010,-1064 393,-1450 -1377,-862 -3378,-1390 -4994,-1483 -696,-40 -866,910 -338,1247z"
   fill-rule="nonzero"
   fill="black" />
  <path
   id="path75"
   d="M74262 136246c1147,1031 2910,1893 4479,1488 739,-190 593,-1110 0,-1358 -636,-266 -1310,-326 -1970,-508 -644,-178 -1285,-414 -1906,-658 -581,-229 -1046,638 -603,1036z"
   fill-rule="nonzero"
   fill="black" />
  <path
   id="path77"
   d="M82019 137646c1166,1182 3253,1654 4806,1010 777,-323 712,-1458 -205,-1510 -733,-42 -1465,37 -2197,-11 -704,-46 -1401,-159 -2106,-208 -375,-27 -541,472 -298,719z"
   fill-rule="nonzero"
   fill="black" />
  <path
   id="path79"
   d="M90524 139074c1471,236 3218,192 4663,-164 849,-209 599,-1388 -197,-1451 -1405,-112 -3129,117 -4467,563 -461,154 -573,960 0,1052z"
   fill-rule="nonzero"
   fill="black" />
  <path
   id="path81"
   d="M99323 137864c1036,567 2613,322 3434,-512 535,-543 0,-1545 -762,-1309 -431,133 -826,342 -1256,478 -421,133 -857,180 -1280,302 -460,132 -574,802 -136,1042z"
   fill-rule="nonzero"
   fill="black" />
  <path
   id="path83"
   d="M106118 135787c821,151 1969,-183 2358,-988 182,-377 -134,-1010 -621,-808 -333,137 -623,337 -929,526 -289,178 -608,284 -919,418 -362,156 -266,782 111,852z"
   fill-rule="nonzero"
   fill="black" />
  <path
   id="path85"
   d="M76395 158991c-58,-1609 -269,-3214 -373,-4821 -99,-1526 -129,-3043 -336,-4560 -108,-787 -1199,-484 -1276,173 -349,2990 223,6505 1323,9298 129,329 677,320 662,-90z"
   fill-rule="nonzero"
   fill="black" />
  <path
   id="path87"
   d="M107569 117544c2356,2261 6405,3069 9529,3485 3492,466 6978,333 10389,-568 875,-231 490,-1467 -367,-1329 -3228,521 -6555,693 -9807,306 -1669,-198 -3307,-544 -4927,-989 -1524,-420 -3026,-1064 -4592,-1295 -212,-31 -411,212 -227,389z"
   fill-rule="nonzero"
   fill="black" />
  <path
   id="path89"
   d="M130284 115731c-2308,1165 -3036,4049 -2167,6381 1036,2779 4044,4255 6848,4451 3239,227 6324,-1153 7620,-4236 1118,-2661 597,-5912 -1658,-7818 -2547,-2152 -6367,-2227 -8880,-23 -745,653 223,1898 1057,1371 2082,-1316 5152,-1134 6846,761 1694,1895 1247,5139 -583,6790 -2122,1913 -6095,1762 -8410,259 -2504,-1626 -3094,-5687 -394,-7456 299,-197 39,-641 -280,-480z"
   fill-rule="nonzero"
   fill="black" />
  <path
   id="path91"
   d="M128620 119083c2971,1042 6461,688 9009,-1207 519,-385 85,-1158 -511,-873 -2664,1271 -5383,1867 -8327,1459 -403,-56 -573,480 -171,621z"
   fill-rule="nonzero"
   fill="black" />
  <path
   id="path93"
   d="M129032 123112c2518,35 4947,-229 7240,-1340 624,-303 183,-1383 -477,-1133 -2185,829 -4402,1548 -6763,1580 -575,8 -575,885 0,893z"
   fill-rule="nonzero"
   fill="black" />
  <path
   id="path95"
   d="M50877 115266c-2871,1594 -4829,4124 -6068,7135 -1416,3440 -2222,7265 -2614,10953 -78,737 1142,897 1295,175 705,-3324 1279,-6710 2338,-9945 1037,-3166 2811,-5753 5452,-7797 306,-237 -84,-698 -403,-522z"
   fill-rule="nonzero"
   fill="black" />
  <path
   id="path97"
   d="M42513 131216c-3362,-41 -6202,2741 -6498,6066 -302,3387 2298,6751 5607,7445 1685,353 3546,51 4916,-1026 1505,-1183 2181,-3184 2447,-5017 480,-3313 -1272,-8001 -5328,-7677 -646,52 -862,1015 -161,1188 3134,772 4393,3653 3833,6690 -239,1293 -695,2718 -1736,3590 -1158,969 -2876,1150 -4284,713 -2454,-763 -4272,-3321 -4031,-5905 258,-2769 2700,-4939 5312,-5510 317,-69 238,-551 -75,-555z"
   fill-rule="nonzero"
   fill="black" />
  <path
   id="path99"
   d="M39904 143080c-790,-2153 -459,-4207 603,-6199 307,-577 -492,-1286 -950,-733 -1702,2054 -1734,4990 -297,7203 206,317 788,122 644,-271z"
   fill-rule="nonzero"
   fill="black" />
  <path
   id="path101"
   d="M43167 144495c-1253,-3586 -369,-7117 1656,-10219 409,-626 -504,-1300 -1020,-787 -2963,2944 -3269,7724 -1479,11362 229,464 1016,139 843,-356z"
   fill-rule="nonzero"
   fill="black" />
  <path
   id="path103"
   d="M135561 113437c583,-13825 481,-27700 556,-41535 74,-13676 146,-27352 182,-41028 20,-7767 30,-15541 -352,-23300 -36,-733 -1104,-735 -1140,0 -680,13818 -369,27705 -294,41535 74,13676 109,27353 254,41028 82,7764 99,15541 426,23300 10,236 357,236 367,0z"
   fill-rule="nonzero"
   fill="black" />
  <path
   id="path105"
   d="M135561 162474c810,-7512 565,-15179 681,-22740 75,-4899 364,-9928 -315,-14788 -76,-544 -1023,-544 -1099,0 -837,5998 -354,12242 -260,18293 22,1476 45,2951 68,4427 76,4923 31,9911 558,14807 26,236 342,236 367,0z"
   fill-rule="nonzero"
   fill="black" />
  <path
   id="path107"
   d="M124318 162907c5230,-2790 10721,-4721 16639,-5349 5732,-608 11537,93 17045,1752 721,218 984,-850 306,-1109 -10930,-4167 -24672,-2538 -34090,4535 -100,75 -15,233 100,171z"
   fill-rule="nonzero"
   fill="black" />
  <path
   id="path109"
   d="M136329 7399c1718,-520 3252,-1956 4833,-2806 1663,-893 3404,-1623 5239,-2080 3768,-939 7901,-744 11456,887 3440,1578 5863,4616 9055,6575 3095,1900 6662,2975 10294,3047 467,10 449,-670 0,-714 -4278,-410 -8347,-1953 -11657,-4728 -2969,-2489 -5405,-5322 -9168,-6646 -3628,-1276 -7653,-1192 -11310,-74 -1823,557 -3588,1343 -5216,2334 -1402,853 -3307,2003 -4053,3520 -171,346 113,809 526,684z"
   fill-rule="nonzero"
   fill="black" />
  <path
   id="path111"
   d="M136604 40600c1511,-672 2808,-1660 4423,-2118 1640,-464 3375,-550 5066,-390 3900,368 7441,2233 10903,3924 3621,1770 7254,3269 11278,3814 4223,572 8504,263 12622,-812 1110,-290 634,-1916 -469,-1702 -4507,874 -9177,1168 -13701,238 -4376,-900 -8200,-3096 -12222,-4929 -3348,-1525 -6854,-2706 -10582,-2502 -2757,151 -6793,1140 -7791,4113 -99,294 239,468 473,364z"
   fill-rule="nonzero"
   fill="black" />
  <path
   id="path113"
   d="M179480 13266c-1480,10346 -1287,21156 762,31412 142,713 1197,403 1080,-298 -1728,-10337 -2228,-20598 -1326,-31044 25,-292 -474,-364 -516,-70z"
   fill-rule="nonzero"
   fill="black" />
  <path
   id="path115"
   d="M47899 107162c-1563,166 -4156,845 -4312,2788 -185,2315 3717,3548 5328,4223 6025,2521 12650,3254 19101,3827 7329,652 14699,857 22052,587 3675,-135 7347,-384 11007,-747 3146,-311 6325,-663 9364,-1571 2126,-635 7082,-2070 6589,-5082 -212,-1298 -1417,-2203 -2434,-2909 -1388,-963 -2922,-1549 -4602,-1726 -621,-66 -693,878 -142,1051 1290,405 2563,881 3721,1589 532,326 1101,695 1534,1149 1014,1063 643,2003 -424,2726 -2139,1450 -4827,2185 -7332,2691 -5560,1123 -11376,1406 -17033,1637 -5931,243 -11874,202 -17799,-138 -5542,-317 -11161,-749 -16595,-1929 -2957,-642 -5871,-1537 -8589,-2881 -1045,-517 -3430,-1416 -2763,-2946 508,-1166 2267,-1629 3396,-1825 288,-50 225,-547 -70,-516z"
   fill-rule="nonzero"
   fill="black" />
  <path
   id="path117"
   d="M44909 109114c-368,-7478 -783,-14971 -977,-22459 -181,-6969 -378,-14028 247,-20981 584,-6485 2164,-12894 5805,-18370 3286,-4941 7904,-8904 12985,-11912 11011,-6518 25113,-9663 37378,-4936 5930,2286 10881,6419 14145,11873 3331,5564 4899,11999 5345,18425 568,8180 -415,16457 -1555,24550 -573,4065 -1251,8115 -2032,12145 -782,4033 -1791,8023 -2502,12067 -161,919 1123,1303 1415,390 2339,-7288 3515,-15108 4626,-22667 1098,-7467 2054,-15053 1974,-22613 -138,-13086 -4479,-26921 -16473,-33766 -11966,-6829 -26682,-5005 -38713,651 -5448,2561 -10555,6051 -14621,10516 -4318,4742 -7136,10459 -8455,16727 -1675,7963 -1376,16316 -1109,24400 288,8723 907,17374 2235,25998 24,160 290,122 282,-38z"
   fill-rule="nonzero"
   fill="black" />
  <path
   id="path119"
   d="M42369 86696c264,-616 -196,-1006 -828,-1069 -1261,-125 -2700,769 -3741,1369 -2377,1370 -5100,3037 -5581,5989 -444,2726 1723,4740 3836,6038 2680,1646 5876,2756 9035,2796 1052,14 978,-1456 0,-1586 -2093,-279 -4155,-640 -6130,-1412 -1846,-721 -4209,-1800 -5231,-3602 -1292,-2278 397,-4578 2174,-5944 793,-609 1650,-1140 2503,-1660 420,-256 845,-511 1292,-720 14,-6 2350,-901 2244,-378 -49,240 316,437 426,179z"
   fill-rule="nonzero"
   fill="black" />
  <path
   id="path121"
   d="M114795 83807c2853,585 5663,1343 8411,2311 1451,511 2878,1081 4274,1729 935,433 2543,1047 2853,2161 310,1111 -1056,2485 -1764,3195 -872,875 -1881,1582 -2963,2173 -2259,1235 -4737,1801 -7201,2468 -953,258 -801,1909 241,1782 2997,-366 6026,-1343 8606,-2934 2076,-1280 5286,-3857 4999,-6625 -297,-2865 -4232,-3932 -6448,-4740 -3515,-1281 -7161,-2089 -10886,-2417 -510,-45 -624,793 -122,896z"
   fill-rule="nonzero"
   fill="black" />
  <path
   id="path123"
   d="M37318 87171c-2473,2456 -2680,7570 -927,10463 301,497 1171,178 969,-409 -574,-1667 -1090,-3192 -1050,-4990 39,-1777 659,-3301 1174,-4967 30,-96 -97,-164 -166,-96z"
   fill-rule="nonzero"
   fill="black" />
  <path
   id="path125"
   d="M126343 85678c-2690,2735 -3247,7359 -1549,10745 318,633 1381,193 1151,-485 -1171,-3456 -794,-6641 982,-9809 204,-364 -283,-757 -584,-451z"
   fill-rule="nonzero"
   fill="black" />
  <path
   id="path127"
   d="M32507 93087c-1941,-841 -4378,-929 -6467,-1186 -615,-76 -731,925 -145,1071 2014,502 4513,1056 6560,514 166,-44 230,-321 52,-399z"
   fill-rule="nonzero"
   fill="black" />
  <path
   id="path129"
   d="M129439 90755c4048,-625 8159,-962 12176,-1761 742,-148 580,-1366 -179,-1324 -4134,229 -8242,1178 -12276,2071 -673,149 -374,1114 280,1014z"
   fill-rule="nonzero"
   fill="black" />
  <path
   id="path131"
   d="M25676 92601c697,-897 493,-2246 -513,-2861 -1258,-769 -2867,124 -3419,1339 -701,1542 17,3551 1297,4573 1118,892 3019,992 3692,-485 205,-450 -324,-938 -717,-553 -1482,1456 -3224,-328 -3351,-1950 -67,-851 229,-1713 1085,-2045 1005,-389 2145,588 1505,1657 -151,253 230,570 421,324z"
   fill-rule="nonzero"
   fill="black" />
  <path
   id="path133"
   d="M140410 86953c196,-1147 719,-2472 1928,-2879 1380,-465 2229,554 2319,1826 63,870 -161,1770 -588,2527 -533,944 -1211,1260 -2210,1524 -542,144 -463,847 0,1023 1472,561 2827,-817 3445,-2024 675,-1317 957,-3067 350,-4461 -617,-1419 -2165,-2069 -3608,-1476 -1592,655 -2125,2281 -2064,3881 9,233 385,312 429,58z"
   fill-rule="nonzero"
   fill="black" />
  <path
   id="path135"
   d="M138725 114856c2411,-1687 389,-4677 -1878,-5143 -2737,-562 -6511,1157 -5495,4465 212,694 1225,406 1080,-298 -447,-2166 1959,-3184 3731,-3046 1661,130 4045,1914 2213,3570 -238,216 79,640 349,452z"
   fill-rule="nonzero"
   fill="black" />
  <path
   id="path137"
   d="M47236 133302c1307,-735 2178,702 2676,1681 237,465 506,962 584,1487 94,638 -358,1833 -1252,1446 -475,-206 -1097,391 -613,795 730,607 1636,553 2345,-93 901,-820 852,-2064 439,-3121 -601,-1537 -2682,-4576 -4546,-2669 -240,246 65,644 366,475z"
   fill-rule="nonzero"
   fill="black" />
  <path
   id="path139"
   d="M138496 140959c677,-352 1415,-859 1888,-1459 380,-482 -80,-1155 -667,-864 -688,341 -1336,952 -1822,1545 -350,426 79,1049 601,778z"
   fill-rule="nonzero"
   fill="black" />
  <path
   id="path141"
   d="M142603 138171c469,-55 890,-137 1342,-290 453,-153 946,-285 1182,-739 174,-336 23,-731 -344,-845 -499,-154 -936,103 -1370,322 -422,213 -778,454 -1143,747 -305,245 -62,850 333,804z"
   fill-rule="nonzero"
   fill="black" />
  <path
   id="path143"
   d="M147933 137008c396,140 770,219 1194,174 519,-56 901,-230 1218,-649 313,-413 -119,-944 -552,-962 -638,-28 -1234,352 -1861,443 -550,80 -426,845 0,994z"
   fill-rule="nonzero"
   fill="black" />
  <path
   id="path145"
   d="M153265 137342c550,302 1114,555 1751,543 587,-11 814,-805 301,-1109 -547,-324 -1163,-386 -1791,-394 -505,-7 -710,714 -260,960z"
   fill-rule="nonzero"
   fill="black" />
  <path
   id="path147"
   d="M157721 139392c28,10 57,21 85,31 -88,-51 -177,-103 -265,-154 175,213 510,286 744,438 202,131 407,270 592,423 243,202 572,258 833,50 247,-197 323,-537 163,-819 -392,-693 -1399,-1399 -2211,-1034l303 -82c-30,-1 -59,-1 -89,-2 -288,-7 -541,228 -575,507 -36,304 139,538 419,642z"
   fill-rule="nonzero"
   fill="black" />
  <path
   id="path149"
   d="M161712 142273c225,469 533,1097 1014,1346 542,279 1099,-179 987,-759 -59,-306 -285,-578 -484,-805 -169,-193 -338,-373 -529,-544 -544,-490 -1298,119 -989,763z"
   fill-rule="nonzero"
   fill="black" />
  <path
   id="path151"
   d="M163930 145748c281,298 549,604 866,864 197,161 474,193 666,0 190,-190 168,-474 0,-666 -271,-308 -586,-566 -894,-836 -183,-160 -458,-180 -638,0 -177,177 -167,460 0,638z"
   fill-rule="nonzero"
   fill="black" />
  <path
   id="path153"
   d="M177916 134188c-5332,-1348 -9399,3908 -11000,8340 -735,2032 -1020,4529 270,6407 1553,2259 4988,2817 7445,3480 5578,1505 11352,1450 16086,-2229 3756,-2919 6866,-8626 3878,-13145 -1522,-2302 -4103,-3618 -6651,-4469 -3302,-1103 -6887,-1517 -10303,-764 -545,120 -418,969 131,964 4615,-41 9734,304 13631,3074 4234,3009 3235,8309 51,11726 -3193,3427 -7754,4809 -12345,4240 -2634,-327 -5231,-1113 -7755,-1913 -2373,-753 -3903,-2075 -3741,-4712 295,-4780 4642,-11535 10110,-10303 453,102 646,-583 192,-698z"
   fill-rule="nonzero"
   fill="black" />
  <path
   id="path155"
   d="M186895 137889c-1319,-1873 -3500,-2185 -5573,-1312 -2179,918 -3704,3013 -3862,5379 -148,2228 970,4978 3169,5854 2780,1108 4872,-2441 5903,-4502 -423,-178 -846,-357 -1269,-534 -666,2054 928,4229 3054,4392 2478,190 4405,-1822 4986,-4077 597,-2318 221,-5275 -1687,-6905 -1661,-1419 -4247,-1380 -5519,474 -452,658 514,1305 1059,816 1070,-958 2751,-763 3693,262 1006,1095 1244,2756 1101,4186 -153,1529 -882,3176 -2426,3737 -1662,604 -3605,-641 -2922,-2515 274,-752 -880,-1200 -1269,-535 -799,1363 -2551,4882 -4527,3769 -1562,-880 -2216,-3037 -1999,-4714 212,-1644 1276,-3070 2733,-3844 1430,-761 3725,-939 4848,461 227,283 717,-91 506,-391z"
   fill-rule="nonzero"
   fill="black" />
  <path
   id="path157"
   d="M183557 140379c-1002,105 -1401,1394 -716,2103 142,147 365,202 560,148 889,-243 1365,-1196 1147,-2067 -98,-392 -573,-689 -968,-550 -805,283 -1445,1331 -745,2062 298,311 757,191 981,-127 82,-116 153,-246 223,-369 18,-31 37,-62 56,-92 -46,55 -50,63 -11,22 40,-38 33,-34 -22,12 41,-24 82,-48 124,-71 -359,-94 -718,-188 -1077,-282 40,70 25,56 5,-9 3,7 36,185 27,90 -9,-90 -4,47 -5,63 -16,119 26,-168 -9,39 -14,80 -68,164 -170,226l581 0c-131,-77 53,62 -50,-42 58,58 -6,-44 6,-5 7,23 -8,-106 -9,-94 16,-138 58,-233 178,-270 413,-126 362,-838 -107,-789z"
   fill-rule="nonzero"
   fill="black" />
  <path
   id="path159"
   d="M186682 140365c-3,26 -6,51 -9,77 35,-85 71,-170 106,-255 -147,175 -202,319 -255,538 -38,157 -63,316 -92,475 -63,349 163,851 604,793 494,-65 970,-144 1333,-521 405,-421 538,-1083 164,-1567 -304,-393 -814,-595 -1305,-475 -558,137 -934,717 -750,1281 131,401 566,703 994,565 458,-149 631,-545 564,-994 51,342 -134,693 -433,778 83,-23 -239,0 -122,20 26,5 69,10 95,7 -25,3 -239,-52 -110,-12 128,39 -71,-32 -90,-43 113,66 -151,-146 -64,-54 -30,-38 -59,-77 -89,-116 -52,-144 -69,-185 -51,-122 10,39 8,20 -6,-58 -17,-61 -15,-122 6,-183 -34,138 61,-113 20,-25 -70,150 16,-18 19,-14 5,7 -107,102 -113,107 -33,29 -66,58 -99,87 -59,52 -78,55 -4,6 -91,60 -181,115 -277,166 307,125 613,250 920,375 -29,-159 -55,-318 -94,-475 -54,-215 -110,-365 -257,-538 35,85 70,170 105,255 -3,-26 -6,-51 -9,-77 -54,-450 -652,-453 -704,0z"
   fill-rule="nonzero"
   fill="black" />
  <path
   id="path161"
   d="M168045 141571c-857,-1565 -2241,-2841 -3144,-4410 -939,-1630 -1673,-3387 -2261,-5173 -236,-716 -1515,-649 -1403,190 276,2056 898,3954 1955,5746 941,1596 2314,3654 4045,4454 521,240 1108,-259 808,-808z"
   fill-rule="nonzero"
   fill="black" />
  <path
   id="path163"
   d="M168713 150404c-1917,2555 -3342,6252 -3262,9475 22,890 1324,1096 1568,212 431,-1559 640,-3167 1084,-4726 440,-1543 1038,-3043 1570,-4556 213,-608 -632,-843 -961,-405z"
   fill-rule="nonzero"
   fill="black" />
  <path
   id="path165"
   d="M179074 153404c-647,2615 -636,5775 -127,8412 163,843 1406,599 1441,-195 62,-1431 -67,-2849 -126,-4279 -54,-1311 -50,-2637 -242,-3937 -73,-492 -837,-442 -947,0z"
   fill-rule="nonzero"
   fill="black" />
  <path
   id="path167"
   d="M183121 152693c90,1560 422,3081 798,4594 378,1522 720,3080 1466,4471 486,906 1694,237 1550,-653 -239,-1474 -832,-2875 -1270,-4299 -441,-1430 -827,-2877 -1374,-4271 -226,-576 -1210,-567 -1169,158z"
   fill-rule="nonzero"
   fill="black" />
  <path
   id="path169"
   d="M165556 159256c-1462,-675 -3215,190 -3694,1729 -592,1901 1101,3724 2877,4080 1920,384 4007,-828 4540,-2729 579,-2061 -939,-4150 -3046,-4243 -807,-36 -968,1205 -190,1402 2790,708 1841,4450 -813,4466 -1227,8 -2587,-941 -2652,-2248 -72,-1448 1485,-2499 2793,-2022 251,91 429,-322 184,-434z"
   fill-rule="nonzero"
   fill="black" />
  <path
   id="path171"
   d="M180763 160637c-699,-1929 -2965,-1132 -3834,188 -868,1317 -1680,3857 125,4803 1710,897 4741,-248 5588,-1919 780,-1537 -77,-3856 -1979,-3826 -805,13 -1011,1233 -194,1432 782,190 1119,1127 771,1835 -459,935 -1786,1309 -2740,1392 -1590,139 -1416,-1273 -961,-2344 324,-763 1722,-2719 2535,-1271 204,363 837,119 689,-290z"
   fill-rule="nonzero"
   fill="black" />
  <path
   id="path173"
   d="M186113 161469c-933,367 -1164,1494 -713,2346 684,1291 2434,1181 3574,667 1234,-557 2266,-1825 1697,-3225 -511,-1256 -2076,-1872 -3348,-1827 -572,19 -925,901 -318,1173 910,406 3297,974 2025,2364 -508,555 -1352,930 -2107,874 -913,-68 -1617,-1369 -597,-1866 279,-136 81,-623 -214,-508z"
   fill-rule="nonzero"
   fill="black" />
  <path
   id="path175"
   d="M162690 134259c1374,-836 2872,-1920 2822,-3710 -46,-1673 -1564,-2576 -3117,-2310 -1462,250 -3358,1331 -3801,2848 -406,1388 914,3051 2354,2281 503,-269 302,-1196 -305,-1127 -743,84 -822,-619 -517,-1130 173,-289 559,-577 827,-766 592,-417 1459,-865 2209,-778 1071,125 1377,1178 1052,2104 -312,886 -1126,1493 -1869,1997 -361,244 -35,822 345,590z"
   fill-rule="nonzero"
   fill="black" />
  <path
   id="path177"
   d="M180897 133997c603,-3114 881,-6281 1156,-9437 284,-3256 620,-6595 412,-9863 -25,-400 -533,-554 -756,-205 -586,918 -1404,1437 -2376,788 -774,-517 -843,-1506 -556,-2312 522,-1467 2141,-2115 3589,-2228 1022,-80 2675,135 3089,1271 455,1248 -1996,4829 -3187,3168 -396,-553 -1154,-206 -1060,447 167,1154 1481,1595 2508,1285 1314,-396 2415,-2005 2886,-3212 1071,-2748 -1643,-4388 -4077,-4263 -2526,129 -5693,1916 -5109,4898 230,1179 1146,2102 2341,2305 441,74 896,49 1312,-117 795,-317 867,-931 1340,-1620 -247,-104 -495,-208 -742,-312 -502,3123 -584,6325 -808,9478 -232,3277 -555,6555 -625,9840 -8,372 589,469 662,90z"
   fill-rule="nonzero"
   fill="black" />
  <path
   id="path179"
   d="M111832 46318c3023,7182 2609,14210 -926,15698 -3535,1488 -8852,-3128 -11875,-10309 -3023,-7182 -2608,-14210 926,-15699 3535,-1488 8851,3128 11875,10310z"
   fill-rule="nonzero"
   fill="white" />
  <path
   id="path181"
   d="M111223 67604c1011,2401 873,4751 -309,5248 -1182,497 -2959,-1046 -3970,-3447 -1011,-2401 -872,-4751 309,-5248 1182,-498 2959,1046 3970,3446z"
   fill-rule="nonzero"
   fill="white" />
 </g>
</svg>
